<svg width="17" height="17" viewBox="0 0 17 17" fill="none" xmlns="http://www.w3.org/2000/svg">
<path d="M10.464 5.95004C10.2765 5.76252 10.1712 5.50821 10.1712 5.24304C10.1712 4.97788 10.2765 4.72357 10.464 4.53604L12.834 2.16604C12.0405 1.78543 11.1484 1.66056 10.2808 1.80866C9.41328 1.95676 8.61312 2.37053 7.9908 2.99285C7.36849 3.61516 6.95472 4.41532 6.80662 5.28286C6.65852 6.1504 6.78339 7.04251 7.164 7.83604L1.164 13.836C0.898784 14.1013 0.749786 14.461 0.749786 14.836C0.749786 15.2111 0.898784 15.5708 1.164 15.836C1.42922 16.1013 1.78893 16.2503 2.164 16.2503C2.53907 16.2503 2.89878 16.1013 3.164 15.836L9.165 9.83504C9.95664 10.2146 10.8464 10.3397 11.712 10.1931C12.5776 10.0465 13.3765 9.63545 13.9991 9.01642C14.6216 8.39739 15.0372 7.60077 15.1886 6.73601C15.3401 5.87126 15.2201 4.98081 14.845 4.18704L12.48 6.55004C12.2925 6.73751 12.0382 6.84283 11.773 6.84283C11.5078 6.84283 11.2535 6.73751 11.066 6.55004L10.464 5.95004Z" stroke="black" stroke-width="1.5" stroke-linecap="round"/>
</svg>
