<svg width="16" height="12" viewBox="0 0 16 12" fill="none" xmlns="http://www.w3.org/2000/svg">
<path d="M3.75 3.75V8.25M7.25 3.75V8.25M13.75 4.75H14C14.3315 4.75 14.6495 4.8817 14.8839 5.11612C15.1183 5.35054 15.25 5.66848 15.25 6C15.25 6.33152 15.1183 6.64946 14.8839 6.88388C14.6495 7.1183 14.3315 7.25 14 7.25H13.75M0.75 2.75C0.75 2.21957 0.960714 1.71086 1.33579 1.33579C1.71086 0.960714 2.21957 0.75 2.75 0.75H11.25C11.7804 0.75 12.2891 0.960714 12.6642 1.33579C13.0393 1.71086 13.25 2.21957 13.25 2.75V9.25C13.25 9.78043 13.0393 10.2891 12.6642 10.6642C12.2891 11.0393 11.7804 11.25 11.25 11.25H2.75C2.21957 11.25 1.71086 11.0393 1.33579 10.6642C0.960714 10.2891 0.75 9.78043 0.75 9.25V2.75Z" stroke="black" stroke-width="1.5" stroke-linecap="square"/>
</svg>
